Coordinates
version=1
nRows=27
nColumns=12
inDegrees=yes

Units are S.I. units (second, meters, Newtons, ...)
Angles are in degrees

endheader
time	SC_y	SC_z	SC_x	AC_y	AC_z	AC_x	GH_y	GH_z	GH_yy	EL_x	PS_y
       0.0              -28.33          36.62           57.8          62.97         -13.03         -12.93         -104.7          34.25          39.16          19.77          142.6
   0.04571              -28.33          36.62           57.8          62.97         -13.03         -12.92         -104.7          34.25          39.17          19.79          142.6
   0.09142              -28.33          36.61          57.81          62.97         -13.03         -12.92         -104.6          34.26          39.18           19.8          142.6
    0.1371              -28.34           36.6          57.81          62.96         -13.03         -12.91         -104.6          34.27          39.18          19.82          142.6
    0.1828              -28.34           36.6          57.81          62.96         -13.03         -12.91         -104.6          34.27           39.2          19.84          142.6
    0.2286              -28.34          36.59          57.82          62.95         -13.03          -12.9         -104.6          34.28          39.21          19.86          142.6
    0.2743              -28.34          36.58          57.82          62.95         -13.03          -12.9         -104.6          34.29          39.22          19.88          142.6
      0.32              -28.35          36.57          57.83          62.94         -13.03         -12.89         -104.5           34.3          39.23          19.91          142.6
    0.3657              -28.35          36.56          57.83          62.94         -13.03         -12.88         -104.5          34.31          39.24          19.93          142.6
    0.4114              -28.35          36.55          57.84          62.93         -13.03         -12.87         -104.5          34.32          39.26          19.96          142.6
    0.4571              -28.36          36.54          57.84          62.93         -13.04         -12.87         -104.5          34.33          39.27          19.99          142.6
    0.5028              -28.36          36.53          57.85          62.92         -13.04         -12.86         -104.4          34.35          39.29          20.02          142.6
    0.5485              -28.36          36.52          57.85          62.92         -13.04         -12.85         -104.4          34.36          39.31          20.06          142.6
    0.5943              -28.37           36.5          57.86          62.91         -13.04         -12.84         -104.4          34.37          39.33          20.09          142.6
      0.64              -28.37          36.49          57.87           62.9         -13.04         -12.83         -104.4          34.39          39.35          20.13          142.6
    0.6857              -28.38          36.47          57.88          62.89         -13.04         -12.81         -104.3          34.41          39.37          20.17          142.6
    0.7314              -28.38          36.46          57.89          62.88         -13.04          -12.8         -104.3          34.43           39.4          20.22          142.6
    0.7771              -28.39          36.44          57.89          62.87         -13.04         -12.79         -104.2          34.45          39.42          20.27          142.6
    0.8228               -28.4          36.42           57.9          62.86         -13.05         -12.77         -104.2          34.47          39.45          20.33          142.6
    0.8685               -28.4           36.4          57.92          62.85         -13.05         -12.75         -104.1          34.49          39.48          20.39          142.6
    0.9142              -28.41          36.37          57.93          62.84         -13.05         -12.73         -104.1          34.52          39.52          20.46          142.6
      0.96              -28.42          36.35          57.94          62.82         -13.05         -12.71         -104.0          34.55          39.56          20.53          142.5
     1.006              -28.43          36.32          57.96          62.81         -13.06         -12.69         -103.9          34.58           39.6          20.61          142.5
     1.051              -28.44          36.28          57.97          62.79         -13.06         -12.66         -103.9          34.62          39.65           20.7          142.5
     1.097              -28.45          36.25          57.99          62.77         -13.06         -12.64         -103.8          34.66           39.7           20.8          142.5
     1.143              -28.47          36.21          58.01          62.75         -13.07          -12.6         -103.7           34.7          39.76          20.91          142.5
     1.189              -28.48          36.16          58.04          62.72         -13.07         -12.57         -103.6          34.75          39.83          21.04          142.5
